# xmcd
#
# Track frame offsets: 
#        150
#        24005
#        49687
#        74160
#        99330
#        118087
#        130450
#        145357
#        161450
#        177565
#        195512
#        226220
#        241565
#
# Disc length: 3385 seconds
#
# Revision: 0
# Processed by: cddbd v1.5.2PL0 Copyright (c) Steve Scherf et al.
# Submitted via: ExactAudioCopy v0.99pb5
#
DISCID=ad0d370d
DTITLE=Various Artist - 국악방송 새음원시리즈 - 새로운 천년의 약속 4 <오늘, 
DTITLE= 곁으로 온 민요>
DYEAR=1900
DGENRE=민요
TTITLE0=창부타령
TTITLE1=노들강변
TTITLE2=아리랑
TTITLE3=태평가
TTITLE4=도라지
TTITLE5=군밤타령
TTITLE6=천안 삼거리
TTITLE7=방아타령
TTITLE8=양산도
TTITLE9=노랫가락
TTITLE10=베틀가
TTITLE11=풍년가
TTITLE12=청춘가
EXTD=
EXTT0=
EXTT1=
EXTT2=
EXTT3=
EXTT4=
EXTT5=
EXTT6=
EXTT7=
EXTT8=
EXTT9=
EXTT10=
EXTT11=
EXTT12=
PLAYORDER=
